<!DOCTYPE svg PUBLIC "-//W3C//DTD SVG 1.1//EN" "http://www.w3.org/Graphics/SVG/1.1/DTD/svg11.dtd">
<!-- Uploaded to: SVG Repo, www.svgrepo.com, Transformed by: SVG Repo Mixer Tools -->
<svg fill="#ffffff" width="800px" height="800px" viewBox="0 0 24 24" xmlns="http://www.w3.org/2000/svg" stroke="#ffffff" stroke-width="0.72">
<g id="SVGRepo_bgCarrier" stroke-width="0"/>
<g id="SVGRepo_tracerCarrier" stroke-linecap="round" stroke-linejoin="round"/>
<g id="SVGRepo_iconCarrier">
<path fill-rule="evenodd" d="M19.25 1a.75.75 0 01.75.75V4h2.25a.75.75 0 010 1.5H20v2.25a.75.75 0 01-1.5 0V5.5h-2.25a.75.75 0 010-1.5h2.25V1.75a.75.75 0 01.75-.75zM9 6a3.5 3.5 0 100 7 3.5 3.5 0 000-7zM4 9.5a5 5 0 117.916 4.062 7.973 7.973 0 015.018 7.166.75.75 0 11-1.499.044 6.469 6.469 0 00-12.932 0 .75.75 0 01-1.499-.044 7.973 7.973 0 015.059-7.181A4.993 4.993 0 014 9.5z"/>
</g>
</svg>